<svg xmlns="http://www.w3.org/2000/svg" width="18" height="18" viewBox="0 0 18 18">
  <path d="M14.537 9.844c-.02-2.213 1.809-3.275 1.89-3.328-1.03-1.501-2.627-1.707-3.197-1.728-1.359-.138-2.652.799-3.342.799-.689 0-1.754-.779-2.886-.758-1.482.022-2.852.862-3.615 2.188-1.543 2.673-.395 6.629 1.107 8.798.734 1.059 1.607 2.246 2.754 2.203 1.107-.045 1.524-.714 2.859-.714 1.336 0 1.711.714 2.879.691 1.189-.022 1.943-1.08 2.67-2.143.842-1.229 1.188-2.419 1.209-2.479-.027-.011-2.315-.887-2.338-3.527l.01-.002zM12.135 3.16c.61-.74 1.021-1.766.91-2.786-.879.036-1.943.586-2.57 1.326-.564.654-.1058 1.644-.926 2.686.98.076 1.977-.501 2.586-1.226z"/>
</svg> 