<svg width="18" height="18" viewBox="0 0 18 18" fill="none" xmlns="http://www.w3.org/2000/svg">
  <path d="M16.8476 1.5L10.0566 6.16875L11.2313 3.21563L16.8476 1.5Z" fill="#E17726"/>
  <path d="M1.15234 1.5L7.8793 6.21563L6.76867 3.21563L1.15234 1.5Z" fill="#E27625"/>
  <path d="M14.5207 12.6844L12.7793 15.3844L16.4793 16.4156L17.5207 12.7406L14.5207 12.6844Z" fill="#E27625"/>
  <path d="M0.492188 12.7406L1.52282 16.4156L5.22282 15.3844L3.49219 12.6844L0.492188 12.7406Z" fill="#E27625"/>
  <path d="M5.0543 8.00625L4.05429 9.58125L7.71117 9.75L7.59055 5.8125L5.0543 8.00625Z" fill="#E27625"/>
  <path d="M12.9457 8.00625L10.3684 5.76562L10.2888 9.75L13.9457 9.58125L12.9457 8.00625Z" fill="#E27625"/>
  <path d="M5.22266 15.3844L7.48641 14.2875L5.5239 12.7688L5.22266 15.3844Z" fill="#E27625"/>
  <path d="M10.5137 14.2875L12.7793 15.3844L12.4762 12.7688L10.5137 14.2875Z" fill="#E27625"/>
  <path d="M12.7793 15.3844L10.5137 14.2875L10.6934 15.7688L10.6746 16.3688L12.7793 15.3844Z" fill="#D5BFB2"/>
  <path d="M5.22266 15.3844L7.32735 16.3688L7.31672 15.7688L7.48641 14.2875L5.22266 15.3844Z" fill="#D5BFB2"/>
  <path d="M7.37641 11.7844L5.47266 11.25L6.81047 10.6406L7.37641 11.7844Z" fill="#233447"/>
  <path d="M10.6238 11.7844L11.1897 10.6406L12.5369 11.25L10.6238 11.7844Z" fill="#233447"/>
  <path d="M5.22282 15.3844L5.53469 12.6844L3.49219 12.7406L5.22282 15.3844Z" fill="#CC6228"/>
  <path d="M12.4652 12.6844L12.7793 15.3844L14.5207 12.7406L12.4652 12.6844Z" fill="#CC6228"/>
  <path d="M13.9457 9.58125L10.2888 9.75L10.6238 11.7844L11.1897 10.6406L12.5369 11.25L13.9457 9.58125Z" fill="#CC6228"/>
  <path d="M5.47266 11.25L6.81047 10.6406L7.37641 11.7844L7.71133 9.75L4.05445 9.58125L5.47266 11.25Z" fill="#CC6228"/>
  <path d="M4.05429 9.58125L5.52367 12.7688L5.47273 11.25L4.05429 9.58125Z" fill="#E27525"/>
  <path d="M12.5367 11.25L12.4762 12.7688L13.9456 9.58125L12.5367 11.25Z" fill="#E27525"/>
  <path d="M7.71117 9.75L7.37625 11.7844L7.80054 14.0719L7.89242 11.0156L7.71117 9.75Z" fill="#E27525"/>
  <path d="M10.2888 9.75L10.1169 11.0063L10.1994 14.0719L10.6237 11.7844L10.2888 9.75Z" fill="#E27525"/>
  <path d="M10.6238 11.7844L10.1995 14.0719L10.5137 14.2875L12.4762 12.7688L12.5369 11.25L10.6238 11.7844Z" fill="#F5841F"/>
  <path d="M5.47266 11.25L5.52359 12.7688L7.48609 14.2875L7.80047 14.0719L7.37641 11.7844L5.47266 11.25Z" fill="#F5841F"/>
  <path d="M10.6746 16.3688L10.6934 15.7688L10.5231 15.6281H7.47687L7.31672 15.7688L7.32735 16.3688L5.22266 15.3844L5.89406 15.9375L7.44797 17H10.5419L12.1059 15.9375L12.7793 15.3844L10.6746 16.3688Z" fill="#C0AC9D"/>
  <path d="M10.5137 14.2875L10.1995 14.0719H7.80047L7.48641 14.2875L7.31672 15.7688L7.47687 15.6281H10.5231L10.6934 15.7688L10.5137 14.2875Z" fill="#161616"/>
  <path d="M17.0824 6.28125L17.625 3.58125L16.8476 1.5L10.5137 5.90625L12.9457 8.00625L16.3699 9.0375L17.1262 8.15625L16.7914 7.91875L17.3137 7.44375L16.9074 7.125L17.4297 6.73125L17.0824 6.28125Z" fill="#763E1A"/>
  <path d="M0.375 3.58125L0.926625 6.28125L0.570375 6.73125L1.09263 7.125L0.686375 7.44375L1.20863 7.91875L0.873875 8.15625L1.63013 9.0375L5.0543 8.00625L7.48625 5.90625L1.15238 1.5L0.375 3.58125Z" fill="#763E1A"/>
  <path d="M16.3699 9.0375L12.9457 8.00625L13.9457 9.58125L12.4762 12.7688L14.5207 12.7406H17.5207L16.3699 9.0375Z" fill="#F5841F"/>
  <path d="M5.0543 8.00625L1.63013 9.0375L0.492188 12.7406H3.49219L5.52281 12.7688L4.05431 9.58125L5.0543 8.00625Z" fill="#F5841F"/>
  <path d="M10.2888 9.75L10.5137 5.90625L11.2313 3.21563H6.76868L7.48625 5.90625L7.71118 9.75L7.79243 11.025L7.80055 14.0719H10.1995L10.2076 11.025L10.2888 9.75Z" fill="#F5841F"/>
</svg> 