<svg xmlns="http://www.w3.org/2000/svg" width="28" height="28" fill="none" viewBox="0 0 28 28"><clipPath id="a"><path d="M0 0h28v28H0z"></path></clipPath><g clip-path="url(#a)"><path fill="#3396ff" stroke="#66b1ff" stroke-width="0.07" d="M27.965 14A13.965 13.965 0 0114 27.965 13.965 13.965 0 01.035 14a13.965 13.965 0 0127.93 0z"></path><path fill="#fff" d="M8.576 10.428c2.995-2.921 7.852-2.921 10.847 0l.361.352a.368.368 0 010 .529l-1.233 1.203a.195.195 0 01-.271 0l-.496-.484c-2.09-2.038-5.478-2.038-7.567 0l-.531.518a.195.195 0 01-.271 0l-1.233-1.203a.368.368 0 010-.529zm13.398 2.487l1.098 1.07a.368.368 0 010 .529l-4.949 4.826a.39.39 0 01-.542 0l-3.512-3.425a.098.098 0 00-.136 0l-3.512 3.425a.39.39 0 01-.542 0L4.93 14.514a.368.368 0 010-.529l1.098-1.07a.39.39 0 01.542 0l3.513 3.425a.098.098 0 00.136 0l3.512-3.425a.39.39 0 01.542 0l3.513 3.425a.098.098 0 00.136 0l3.513-3.425a.39.39 0 01.542 0"></path></g></svg>