<svg width="28" height="28" viewBox="0 0 28 28" fill="none" xmlns="http://www.w3.org/2000/svg">
  <path d="M14 28C21.732 28 28 21.732 28 14C28 6.26801 21.732 0 14 0C6.26801 0 0 6.26801 0 14C0 21.732 6.26801 28 14 28Z" fill="#0052FF"/>
  <path d="M14 19.7963C10.7941 19.7963 8.20312 17.2054 8.20312 13.9996C8.20312 10.7937 10.7941 8.20269 14 8.20269C16.9021 8.20269 19.3265 10.3319 19.7289 13.0994H25.5862C25.1543 7.16883 20.1284 2.45825 14 2.45825C7.62391 2.45825 2.45801 7.62347 2.45801 13.9996C2.45801 20.3757 7.62391 25.5439 14 25.5439C20.1284 25.5439 25.1543 20.8333 25.5862 14.9028H19.7289C19.3265 17.6672 16.9021 19.7963 14 19.7963Z" fill="white"/>
</svg> 