<svg width="28" height="28" viewBox="0 0 28 28" fill="none" xmlns="http://www.w3.org/2000/svg">
  <path d="M26.2074 2.33337L15.6437 9.59583L17.4708 5L26.2074 2.33337Z" fill="#E17726"/>
  <path d="M1.79141 2.33337L12.2567 9.66875L10.5291 5L1.79141 2.33337Z" fill="#E27625"/>
  <path d="M22.5877 19.7312L19.8789 23.9312L25.6345 25.5354L27.2544 19.8187L22.5877 19.7312Z" fill="#E27625"/>
  <path d="M0.765625 19.8187L2.37994 25.5354L8.13549 23.9312L5.42661 19.7312L0.765625 19.8187Z" fill="#E27625"/>
  <path d="M7.86225 12.4542L6.30669 14.9042L12 15.1667L11.8075 9.04167L7.86225 12.4542Z" fill="#E27625"/>
  <path d="M20.1377 12.4542L16.1286 8.96542L16.0044 15.1667L21.6977 14.9042L20.1377 12.4542Z" fill="#E27625"/>
  <path d="M8.13525 23.9312L11.7567 22.2248L8.59275 19.8625L8.13525 23.9312Z" fill="#E27625"/>
  <path d="M16.3547 22.2248L19.9789 23.9312L19.5186 19.8625L16.3547 22.2248Z" fill="#E27625"/>
  <path d="M19.9789 23.9312L16.3547 22.2248L16.6341 24.5292L16.6049 25.4625L19.9789 23.9312Z" fill="#D5BFB2"/>
  <path d="M8.13525 23.9312L11.5092 25.4625L11.4927 24.5292L11.7567 22.2248L8.13525 23.9312Z" fill="#D5BFB2"/>
  <path d="M11.4744 18.3312L8.51416 17.5L10.5941 16.5521L11.4744 18.3312Z" fill="#233447"/>
  <path d="M16.5259 18.3312L17.4062 16.5521L19.4962 17.5L16.5259 18.3312Z" fill="#233447"/>
  <path d="M8.13549 23.9312L8.60883 19.7312L5.42676 19.8187L8.13549 23.9312Z" fill="#CC6228"/>
  <path d="M19.3903 19.7312L19.8789 23.9312L22.5877 19.8187L19.3903 19.7312Z" fill="#CC6228"/>
  <path d="M21.6977 14.9042L16.0044 15.1667L16.5259 18.3312L17.4062 16.5521L19.4962 17.5L21.6977 14.9042Z" fill="#CC6228"/>
  <path d="M8.51416 17.5L10.5941 16.5521L11.4744 18.3312L12 15.1667L6.30669 14.9042L8.51416 17.5Z" fill="#CC6228"/>
  <path d="M6.30669 14.9042L8.59275 19.8625L8.51416 17.5L6.30669 14.9042Z" fill="#E27525"/>
  <path d="M19.4959 17.5L19.5186 19.8625L21.6977 14.9042L19.4959 17.5Z" fill="#E27525"/>
  <path d="M12 15.1667L11.4744 18.3312L12.1341 21.8896L12.2774 17.1354L12 15.1667Z" fill="#E27525"/>
  <path d="M16.0044 15.1667L15.7374 17.1208L15.8657 21.8896L16.5259 18.3312L16.0044 15.1667Z" fill="#E27525"/>
  <path d="M16.5259 18.3312L15.8657 21.8896L16.3547 22.2248L19.5186 19.8625L19.4962 17.5L16.5259 18.3312Z" fill="#F5841F"/>
  <path d="M8.51416 17.5L8.59275 19.8625L11.7567 22.2248L12.1341 21.8896L11.4744 18.3312L8.51416 17.5Z" fill="#F5841F"/>
  <path d="M16.6049 25.4625L16.6341 24.5292L16.3692 24.3104H11.6303L11.4927 24.5292L11.5092 25.4625L8.13525 23.9312L9.16854 24.7917L11.5858 26.4437H16.3983L18.8203 24.7917L19.9789 23.9312L16.6049 25.4625Z" fill="#C0AC9D"/>
  <path d="M16.3547 22.2248L15.8657 21.8896H12.1341L11.7567 22.2248L11.4927 24.5292L11.6303 24.3104H16.3692L16.6341 24.5292L16.3547 22.2248Z" fill="#161616"/>
  <path d="M26.5726 9.77083L27.4166 5.57083L26.2074 2.33337L16.3547 9.18542L20.1377 12.4542L25.4643 14.0583L26.6408 12.6875L26.0089 12.3187L26.9324 11.5792L26.1893 11.0833L27.1128 10.4708L26.5726 9.77083Z" fill="#763E1A"/>
  <path d="M0.583333 5.57083L1.44141 9.77083L0.886917 10.4708L1.81042 11.0833L1.06725 11.5792L1.99075 12.3187L1.35881 12.6875L2.53531 14.0583L7.86197 12.4542L11.645 9.18542L1.79225 2.33337L0.583333 5.57083Z" fill="#763E1A"/>
  <path d="M25.4643 14.0583L20.1377 12.4542L21.6977 14.9042L19.5186 19.8625L22.5877 19.8187H27.2544L25.4643 14.0583Z" fill="#F5841F"/>
  <path d="M7.86225 12.4542L2.53531 14.0583L0.765625 19.8187H5.42661L8.49275 19.8625L6.30669 14.9042L7.86225 12.4542Z" fill="#F5841F"/>
  <path d="M16.0044 15.1667L16.3547 9.18542L17.4708 5H10.5291L11.645 9.18542L12 15.1667L12.1216 17.1521L12.1341 21.8896H15.8657L15.8783 17.1521L16.0044 15.1667Z" fill="#F5841F"/>
</svg> 